<svg height="512" viewBox="0 0 56 59" width="512" xmlns="http://www.w3.org/2000/svg"><g id="Page-1" fill="none" fill-rule="evenodd"><g id="007---Sanitary-Towel" fill-rule="nonzero"><path id="Shape" d="m33.39 18.71c-.8946866.1361097-1.766267.3952282-2.59.77l.24-1.35.51-2.72c.9570069-4.7600664-.8166537-9.65691194-4.6-12.7-4.6841452-3.61332557-11.2158548-3.61332557-15.9 0-3.78334628 3.04308806-5.55700688 7.9399336-4.6 12.7l.51 2.72.24 1.35c-.82373302-.3747718-1.6953134-.6338903-2.59-.77-1.15317876-.1779414-2.32656764.1565198-3.21262413.9157222s-1.39643842 1.8674515-1.39737587 3.0342778v12.68c.00093745 1.1668263.51131938 2.2750754 1.39737587 3.0342778s2.05944537 1.0936636 3.21262413.9157222c.8946866-.1361097 1.76626698-.3952282 2.59-.77l-.24 1.35-.51 2.72c-.95700688 4.7600664.81665372 9.6569119 4.6 12.7 4.2360189 3.3468823 10.1145044 3.6824149 14.7038383.8392666s6.9065964-8.2560467 5.7961617-13.5392666l-.51-2.72-.24-1.35c.823733.3747718 1.6953134.6338903 2.59.77 1.1531788.1779414 2.3265676-.1565198 3.2126241-.9157222s1.3964384-1.8674515 1.3973759-3.0342778v-12.68c-.0009375-1.1668263-.5113194-2.2750754-1.3973759-3.0342778s-2.0594453-1.0936636-3.2126241-.9157222z" fill="#9fc9d3"/><path id="Shape" d="m13 28.49v1.02c.0038772 4.8851931-3.56106277 9.0407489-8.39 9.78-1.15317876.1779414-2.32656764-.1565198-3.21262413-.9157222s-1.39643842-1.8674515-1.39737587-3.0342778v-12.68c.00093745-1.1668263.51131938-2.2750754 1.39737587-3.0342778s2.05944537-1.0936636 3.21262413-.9157222c4.82827806.7404381 8.3926037 4.8952778 8.39 9.78z" fill="#84b5cb"/><path id="Shape" d="m38 22.66v12.68c-.0009375 1.1668263-.5113194 2.2750754-1.3973759 3.0342778s-2.0594453 1.0936636-3.2126241.9157222c-4.8289372-.7392511-8.3938772-4.8948069-8.39-9.78v-1.02c-.0038772-4.8851931 3.5610628-9.0407489 8.39-9.78 1.1531788-.1779414 2.3265676.1565198 3.2126241.9157222s1.3964384 1.8674515 1.3973759 3.0342778z" fill="#84b5cb"/><path id="Shape" d="m25 13v32c0 3.3137085-2.6862915 6-6 6s-6-2.6862915-6-6v-32c0-3.3137085 2.6862915-6 6-6 3.3116533.00495634 5.9950437 2.68834666 6 6z" fill="#ecf0f1"/><path id="Shape" d="m56 20.538c-.1543145 3.7147705-3.2847622 6.6046209-7 6.462-3.7152378.1426209-6.8456855-2.7472295-7-6.462 0-5.563 4.472-12.251 6.267-14.214.1878057-.20641165.453936-.32407272.733-.32407272s.5451943.11766107.733.32407272c1.795 1.963 6.267 8.651 6.267 14.214z" fill="#ff5364"/><path id="Shape" d="m49 24c-2.055849.1355109-3.8386074-1.4070208-4-3.461 0-.5522847.4477153-1 1-1s1 .4477153 1 1c0 .792.916 1.461 2 1.461.5522847 0 1 .4477153 1 1s-.4477153 1-1 1z" fill="#fff"/><path id="Shape" d="m56 45.538c-.1543145 3.7147705-3.2847622 6.6046209-7 6.462-3.7152378.1426209-6.8456855-2.7472295-7-6.462 0-5.563 4.472-12.251 6.267-14.214.1878057-.2064116.453936-.3240727.733-.3240727s.5451943.1176611.733.3240727c1.795 1.963 6.267 8.651 6.267 14.214z" fill="#ff5364"/><path id="Shape" d="m49 49c-2.055849.1355109-3.8386074-1.4070208-4-3.461 0-.5522847.4477153-1 1-1s1 .4477153 1 1c0 .792.916 1.461 2 1.461.5522847 0 1 .4477153 1 1s-.4477153 1-1 1z" fill="#fff"/><g fill="#3b97d3"><path id="Shape" d="m8 27h-4c-.55228475 0-1-.4477153-1-1s.44771525-1 1-1h4c.55228475 0 1 .4477153 1 1s-.44771525 1-1 1z"/><path id="Shape" d="m8 33h-4c-.55228475 0-1-.4477153-1-1s.44771525-1 1-1h4c.55228475 0 1 .4477153 1 1s-.44771525 1-1 1z"/><path id="Shape" d="m34 27h-4c-.5522847 0-1-.4477153-1-1s.4477153-1 1-1h4c.5522847 0 1 .4477153 1 1s-.4477153 1-1 1z"/><path id="Shape" d="m34 33h-4c-.5522847 0-1-.4477153-1-1s.4477153-1 1-1h4c.5522847 0 1 .4477153 1 1s-.4477153 1-1 1z"/></g><path id="Shape" d="m19 45c-.5522847 0-1-.4477153-1-1v-30c0-.5522847.4477153-1 1-1s1 .4477153 1 1v30c0 .5522847-.4477153 1-1 1z" fill="#84b5cb"/></g></g></svg>