<svg id="Capa_1" enable-background="new 0 0 512.86 512.86" height="512" viewBox="0 0 512.86 512.86" width="512" xmlns="http://www.w3.org/2000/svg"><g><path d="m477.916 463.08-8.85 8.8-427.28-427.28 9.97-9.92c40.9-40.69 107.28-40.52 147.97.39l278.58 280.03c40.69 40.91 40.51 107.29-.39 147.98z" fill="#ff4a4a"/><path d="m469.066 471.88-10.58 10.52c-19.75 19.65-45.94 30.46-73.78 30.46h-.29c-27.95-.08-54.19-11.03-73.9-30.84l-278.58-280.04c-40.69-40.9-40.51-107.29.39-147.97l9.46-9.41z" fill="#ff936a"/><path d="m172.381 126.881h30.462v30h-30.462z" fill="#c40048" transform="matrix(.707 -.707 .707 .707 -45.375 174.218)"/><path d="m73.955 125.094h30.462v30h-30.462z" fill="#ff4a4a" transform="matrix(.707 -.707 .707 .707 -72.939 104.097)"/><path d="m122.808 76.448h30.462v30h-30.462z" fill="#ff4a4a" transform="matrix(.707 -.707 .707 .707 -24.233 124.392)"/><path d="m123.796 175.722h30.462v30h-30.462z" fill="#ff4a4a" transform="matrix(.707 -.707 .707 .707 -94.14 154.168)"/><path d="m73.955 125.094h30.462v30h-30.462z" fill="#ff4a4a" transform="matrix(.707 -.707 .707 .707 -72.939 104.097)"/><path d="m122.808 76.448h30.462v30h-30.462z" fill="#c40048" transform="matrix(.707 -.707 .707 .707 -24.233 124.392)"/><g fill="#ff4a4a"><path d="m123.796 175.722h30.462v30h-30.462z" transform="matrix(.707 -.707 .707 .707 -94.14 154.168)"/><path d="m303.012 355.886h30.462v30h-30.462z" transform="matrix(.707 -.707 .707 .707 -169.045 333.661)"/><path d="m351.864 307.24h30.462v30h-30.462z" transform="matrix(.707 -.707 .707 .707 -120.339 353.957)"/><path d="m401.437 357.673h30.462v30h-30.462z" transform="matrix(.707 -.707 .707 .707 -141.48 403.782)"/><path d="m352.852 406.514h30.462v30h-30.462z" transform="matrix(.707 -.707 .707 .707 -190.246 383.732)"/><path d="m303.012 355.886h30.462v30h-30.462z" transform="matrix(.707 -.707 .707 .707 -169.045 333.661)"/></g><path d="m351.864 307.24h30.462v30h-30.462z" fill="#c40048" transform="matrix(.707 -.707 .707 .707 -120.339 353.957)"/><path d="m401.437 357.673h30.462v30h-30.462z" fill="#c40048" transform="matrix(.707 -.707 .707 .707 -141.48 403.782)"/><path d="m352.852 406.514h30.462v30h-30.462z" fill="#ff4a4a" transform="matrix(.707 -.707 .707 .707 -190.246 383.732)"/><path d="m511.326 126.55c.06 24.85-9.56 48.25-27.09 65.87l-94.306 94.804-79.74 26.066-25.323 79.552-90.181 90.658c-18.16 18.25-42.07 27.39-65.99 27.39-23.74 0-47.5-9.02-65.63-27.05l-17.51-17.42 421.93-421.93 16.4 16.32c17.63 17.53 27.37 40.88 27.44 65.74z" fill="#ff936a"/><path d="m467.486 44.49-421.93 421.93-16.39-16.3c-17.62-17.53-27.36-40.88-27.43-65.74-.06-24.86 9.56-48.25 27.09-65.87l90.187-90.663 82.773-22.997 22.289-82.621 94.301-94.799c17.53-17.62 40.88-27.36 65.74-27.43h.25c24.76 0 48.06 9.61 65.62 27.09z" fill="#edae80"/><path d="m307.126 204.85-105.34 105.34-82.78-82.35 105.07-105.61z" fill="#ff936a"/><path d="m124.424 308.188h30v30.462h-30z" fill="#ff936a" transform="matrix(.707 -.707 .707 .707 -187.855 193.315)"/><path d="m122.636 406.614h30v30.462h-30z" fill="#ff4a4a" transform="matrix(.707 -.707 .707 .707 -257.977 220.879)"/><path d="m73.991 357.762h30v30.462h-30z" fill="#ff936a" transform="matrix(.707 -.707 .707 .707 -237.681 172.173)"/><path d="m173.264 356.773h30v30.462h-30z" fill="#ff4a4a" transform="matrix(.707 -.707 .707 .707 -207.906 242.08)"/><path d="m353.429 177.558h30v30.462h-30z" fill="#ff4a4a" transform="matrix(.707 -.707 .707 .707 -28.412 316.985)"/><path d="m304.783 128.706h30v30.462h-30z" fill="#ff936a" transform="matrix(.707 -.707 .707 .707 -8.116 268.278)"/><path d="m355.216 79.132h30v30.462h-30z" fill="#ff936a" transform="matrix(.707 -.707 .707 .707 41.709 289.42)"/><path d="m404.056 127.717h30v30.462h-30z" fill="#ff4a4a" transform="matrix(.707 -.707 .707 .707 21.659 338.186)"/><path d="m389.926 287.22-105.06 105.62-83.08-82.65 105.34-105.34z" fill="#ff4a4a"/></g></svg>